# xmcd CD database file
#
# Track frame offsets:
#	183
#	20053
#	37270
#	53273
#	66625
#	80468
#	92483
#	150215
#	164298
#	174808
#	194845
#	217213
#	234550
#	249333
#	267198
#	291285
#	307758
#	319235
#	334473
#	347080
#
# Disc length: 4767 seconds
#
# Revision: 2
# Processed by: cddbd v1.5.2PL0 Copyright (c) Steve Scherf et al.
# Submitted via: CDex 1.51
#
DISCID=21129d14
DTITLE=O.V. Wright - That's How Strong My Love Is
DYEAR=1900
DGENRE=Soul
TTITLE0=Into Something (Can't Shake Loose)
TTITLE1=I Feel Love Growin'
TTITLE2=Precious Precious
TTITLE3=The Time We Have
TTITLE4=You Gotta Have Love
TTITLE5=Trying To Live My Life Without You
TTITLE6=Medley: a) God Blessed Our Love - b) When A Man Loves A Woman - c) That's How Strong My Love Is
TTITLE7=The Bottom Line
TTITLE8=I Don't Do Windows
TTITLE9=That's The Way I Feel About Cha'
TTITLE10=Your Good Thing Is About To End
TTITLE11=Let's Straighten It Out
TTITLE12=I Don't Know Why
TTITLE13=No Easy Way To Say Goodbye
TTITLE14=A Little More Time
TTITLE15=Since You Left (These Arms Of Mine)
TTITLE16=A Long Road
TTITLE17=Rhymes
TTITLE18=A Fool Can See The Light
TTITLE19=I'm Gonna Be A Big Man
EXTD=
EXTT0=
EXTT1=
EXTT2=
EXTT3=
EXTT4=
EXTT5=
EXTT6=
EXTT7=
EXTT8=
EXTT9=
EXTT10=
EXTT11=
EXTT12=
EXTT13=
EXTT14=
EXTT15=
EXTT16=
EXTT17=
EXTT18=
EXTT19=
PLAYORDER=
